# xmcd
#
# Track frame offsets:
#	150
#	20592
#	41735
#	58198
#	74933
#	92973
#	109861
#	125665
#	141023
#	159837
#	173876
#	193228
#	211172
#
# Disc length: 2995 seconds
#
# Revision: 1
# Processed by: cddbd v1.5.1PL2 Copyright (c) Steve Scherf et al.
# Submitted via: audiograbber 1.83.01
#
DISCID=c80bb10d
DTITLE=Dierks Bentley - Modern Day Drifter
DYEAR=2005
DGENRE=Country
TTITLE0=Lot Of Leavin' Left To Do
TTITLE1=Come A Little Closer
TTITLE2=Cab Of My Truck
TTITLE3=Settle For A Slowdown
TTITLE4=Domestic, Light And Cold
TTITLE5=Good Things Happen
TTITLE6=Down On Easy Street
TTITLE7=So So Long
TTITLE8=Modern Day Drifter
TTITLE9=Good Man Like Me
TTITLE10=Gonna Get There Someday
TTITLE11=Domestic, Light And Cold (with Cody Canada)
TTITLE12=She Won't Choose Me (Acoustic)
EXTD=
EXTT0=
EXTT1=
EXTT2=
EXTT3=
EXTT4=
EXTT5=
EXTT6=
EXTT7=
EXTT8=
EXTT9=
EXTT10=
EXTT11=
EXTT12=
PLAYORDER=
